<svg width="16" height="17" viewBox="0 0 16 17" fill="none" xmlns="http://www.w3.org/2000/svg">
<path d="M8.66683 5.60186V7.53519H10.4002C10.5335 7.53519 10.6002 7.66852 10.6002 7.80186L10.3335 9.06852C10.3335 9.13519 10.2002 9.20186 10.1335 9.20186H8.66683V14.0685H6.66683V9.26852H5.5335C5.40016 9.26852 5.3335 9.20186 5.3335 9.06852V7.80186C5.3335 7.66852 5.40016 7.60186 5.5335 7.60186H6.66683V5.40186C6.66683 4.26852 7.5335 3.40186 8.66683 3.40186H10.4668C10.6002 3.40186 10.6668 3.46852 10.6668 3.60186V5.20186C10.6668 5.33519 10.6002 5.40186 10.4668 5.40186H8.86683C8.7335 5.40186 8.66683 5.46852 8.66683 5.60186Z" fill="#2E5EFF" stroke="#2E5EFF" stroke-miterlimit="10" stroke-linecap="round"/>
</svg>
