<svg width="16" height="17" viewBox="0 0 16 17" fill="none" xmlns="http://www.w3.org/2000/svg">
<path d="M10.1909 8.74915C10.1909 9.96482 9.20187 10.9539 7.9862 10.9539C6.77053 10.9539 5.78147 9.96482 5.78147 8.74915C5.78147 7.53349 6.77053 6.54442 7.9862 6.54442C9.20187 6.54442 10.1909 7.53342 10.1909 8.74915ZM14 5.73535V11.7354C14 13.3896 12.6542 14.7354 11 14.7354H5C3.3458 14.7354 2 13.3896 2 11.7354V5.73535C2 4.08115 3.3458 2.73535 5 2.73535H11C12.6542 2.73535 14 4.08115 14 5.73535ZM11.2724 8.74915C11.2724 6.93709 9.79827 5.46295 7.9862 5.46295C6.17413 5.46295 4.7 6.93709 4.7 8.74915C4.7 10.5612 6.17413 12.0354 7.9862 12.0354C9.79827 12.0354 11.2724 10.5612 11.2724 8.74915ZM12.5 5.01655C12.5 4.58515 12.1502 4.23535 11.7188 4.23535C11.2874 4.23535 10.9376 4.58515 10.9376 5.01655C10.9376 5.44795 11.2874 5.79775 11.7188 5.79775C12.1502 5.79768 12.5 5.44795 12.5 5.01655Z" fill="#2E5EFF"/>
</svg>
