<svg width="16" height="17" viewBox="0 0 16 17" fill="none" xmlns="http://www.w3.org/2000/svg">
<path d="M3.73318 14.4022C3.56404 14.4022 3.40064 14.3409 3.27311 14.2296C2.98231 13.9758 2.95218 13.5327 3.20598 13.2419L7.01104 8.80411L7.89971 9.91498L4.26071 14.1624C4.12784 14.3148 3.93558 14.4022 3.73318 14.4022ZM8.10031 7.55605L11.7393 3.30865C11.8722 3.15631 12.0645 3.06885 12.2669 3.06885C12.436 3.06885 12.5995 3.13018 12.727 3.24151C13.0178 3.49531 13.0479 3.93838 12.7941 4.22918L8.98904 8.66698L8.10031 7.55605Z" fill="#2E5EFF"/>
<path d="M13.5573 13.5898L5.42392 3.25651C5.32906 3.13791 5.18546 3.06885 5.03352 3.06885H2.83352C2.64132 3.06885 2.46612 3.17898 2.38286 3.35225C2.29959 3.52551 2.32299 3.73111 2.44306 3.88118L10.5764 14.2145C10.6713 14.3331 10.8149 14.4022 10.9668 14.4022H13.1668C13.359 14.4022 13.5342 14.292 13.6175 14.1188C13.7007 13.9455 13.6773 13.7399 13.5573 13.5898Z" fill="#2E5EFF"/>
</svg>
